{"title":"Sidney Lumet - Strip Search (2004)","uid":5530950,"size":738359394,"categoryP":"video","categoryS":"movies","magnet":"?xt=urn:btih:6058cf37eac52d4dc343170fa38d1b43a47f28e8&amp;dn=Sidney+Lumet+-+Strip+Search+%282004%29&amp;tr=udp%3A%2F%2Ftracker.openbittorrent.com%3A80&amp;tr=udp%3A%2F%2Fopen.demonii.com%3A1337&amp;tr=udp%3A%2F%2Ftracker.coppersurfer.tk%3A6969&amp;tr=udp%3A%2F%2Fexodus.desync.com%3A6969","seeders":4,"leechers":1,"uploader":"mfccorrea","files":4,"time":1272921830,"description":"This is a film about the threat of terrorism, and how in tackling it, governments tend to go too far. So far in fact that personal liberties which are guaranteed by the constitutions of democratic countries are no longer respected. Lumet uses US and China, two countries with completely different views on the concept of liberty, to show that despite one being democratic and the other totalitarian, governments will not hesitate in stripping citizens of their basic rights, if such rights impede the greater good (which, of course, is defined by the government).\n\n   General\n      Complete name : Strip.Search.2004.DVDRip.XviD.avi\n      Format : AVI\n      Format/Info : Audio Video Interleave\n      File size : 704 MiB\n      Duration : 55mn 52s\n      Overall bit rate : 1 761 Kbps\n      Writing application : VirtualDubMod 1.5.10.2 (build 2540/release)\n      Writing library : VirtualDubMod build 2540/release\n   Video #0\n      ID : 0\n      Format : MPEG-4 Visual\n      Format profile : AdvancedSimple@L5\n      Format settings, BVOP : Yes\n      Format settings, QPel : No\n      Format settings, GMC : No warppoints\n      Format settings, Matrix : Default (MPEG)\n      Codec ID : XVID\n      Codec ID/Hint : XviD\n      Duration : 55mn 52s\n      Bit rate : 1 560 Kbps\n      Width : 704 pixels\n      Height : 400 pixels\n      Display aspect ratio : 16:9\n      Frame rate : 23.976 fps\n      Resolution : 24 bits\n      Colorimetry : 4:2:0\n      Scan type : Progressive\n      Bits/(Pixel*Frame) : 0.231\n      Stream size : 623 MiB (89%)\n      Writing library : XviD 1.2.1 (UTC 2008-12-04)\n   Audio #1\n      ID : 1\n      Format : AC-3\n      Format/Info : Audio Coding 3\n      Format profile : Dolby Digital\n      Codec ID : 2000\n      Duration : 55mn 52s\n      Bit rate mode : Constant\n      Bit rate : 192 Kbps\n      Channel(s) : 2 channels\n      Channel positions : L R\n      Sampling rate : 48.0 KHz\n      Video delay : 29ms\n      Stream size : 76.7 MiB (11%)\n      Alignment : Split accross interleaves\n      Interleave, duration : 42 ms (1.00 video frame)\n      Interleave, preload duration : 500 ms\n &lt;a href=&quot;\nhttp://www.imdb.com/title/tt0376215/&quot; rel=&quot;nofollow&quot; target=&quot;_NEW&quot;&gt;\nhttp://www.imdb.com/title/tt0376215/&lt;/a&gt;\n\nEnglish audio; English, Spanish and Portuguese subtitles\n\nPosted at KG by 54\n\nSidney Lumet - Strip Search (2004)","torrent":{"xt":"urn:btih:6058cf37eac52d4dc343170fa38d1b43a47f28e8","amp;dn":"Sidney+Lumet+-+Strip+Search+%282004%29","amp;tr":["udp%3A%2F%2Ftracker.openbittorrent.com%3A80","udp%3A%2F%2Fopen.demonii.com%3A1337","udp%3A%2F%2Ftracker.coppersurfer.tk%3A6969","udp%3A%2F%2Fexodus.desync.com%3A6969"],"infoHash":"6058cf37eac52d4dc343170fa38d1b43a47f28e8","infoHashBuffer":{"type":"Buffer","data":[96,88,207,55,234,197,45,77,195,67,23,15,163,141,27,67,164,127,40,232]},"announce":[],"urlList":[]}}